<svg width="10" height="10" viewBox="0 0 10 10" fill="none" xmlns="http://www.w3.org/2000/svg">
<path d="M5 0C7.76 0 10 2.24 10 5C10 7.76 7.76 10 5 10C2.24 10 0 7.76 0 5C0 2.24 2.24 0 5 0ZM5 1C2.79 1 1 2.79 1 5C1 7.21 2.79 9 5 9C7.21 9 9 7.21 9 5C9 2.79 7.21 1 5 1ZM5 2.5C5.91 2.5 6.7065 2.9865 7.144 3.714L6.287 4.2285C6.15213 4.00362 5.96067 3.81803 5.7317 3.69022C5.50273 3.56242 5.24426 3.49687 4.98206 3.50011C4.71986 3.50336 4.46309 3.57528 4.23735 3.70871C4.01161 3.84214 3.8248 4.03241 3.69554 4.26056C3.56627 4.48871 3.49907 4.74675 3.50064 5.00897C3.50221 5.27119 3.57249 5.52841 3.70447 5.755C3.83646 5.98158 4.02553 6.16961 4.25285 6.30033C4.48017 6.43105 4.73778 6.49989 5 6.5C5.25907 6.50017 5.51376 6.43319 5.73923 6.30561C5.9647 6.17802 6.15325 5.99417 6.2865 5.772L7.144 6.286C6.86301 6.75531 6.43582 7.11949 5.92796 7.32267C5.4201 7.52586 4.85961 7.55684 4.33245 7.41086C3.80529 7.26488 3.34057 6.95001 3.00957 6.51452C2.67857 6.07904 2.49956 5.547 2.5 5C2.5 3.62 3.62 2.5 5 2.5Z" fill="#888B91"/>
</svg>
