<svg width="19" height="10" viewBox="0 0 19 10" fill="none" xmlns="http://www.w3.org/2000/svg">
<path d="M0.00100009 10V0.431999H1.041V4.761H2.718L5.344 0.431999H6.436L3.537 5.216L6.475 10H5.37L2.718 5.697H1.041V10H0.00100009ZM7.85909 10V3.058H8.66509L8.88609 3.825C9.23276 3.58233 9.61843 3.37433 10.0431 3.201C10.4764 3.02767 10.9574 2.941 11.4861 2.941C11.9194 2.941 12.2878 3.04067 12.5911 3.24C12.9031 3.43067 13.1371 3.67333 13.2931 3.968C13.5098 3.812 13.7698 3.656 14.0731 3.5C14.3851 3.344 14.7144 3.214 15.0611 3.11C15.4164 2.99733 15.7588 2.941 16.0881 2.941C16.5908 2.941 17.0024 3.04933 17.3231 3.266C17.6438 3.474 17.8778 3.76 18.0251 4.124C18.1811 4.47933 18.2591 4.878 18.2591 5.32V10H17.2321V5.398C17.2321 5.10333 17.1714 4.84333 17.0501 4.618C16.9374 4.384 16.7728 4.202 16.5561 4.072C16.3394 3.942 16.0751 3.877 15.7631 3.877C15.3731 3.877 14.9744 3.95067 14.5671 4.098C14.1598 4.24533 13.7828 4.423 13.4361 4.631C13.4794 4.761 13.5098 4.891 13.5271 5.021C13.5531 5.14233 13.5661 5.27233 13.5661 5.411V10H12.5391V5.398C12.5391 5.10333 12.4784 4.84333 12.3571 4.618C12.2444 4.384 12.0798 4.202 11.8631 4.072C11.6551 3.942 11.3951 3.877 11.0831 3.877C10.7971 3.877 10.5284 3.90733 10.2771 3.968C10.0344 4.02 9.80043 4.098 9.57509 4.202C9.35843 4.29733 9.12876 4.41433 8.88609 4.553V10H7.85909Z" fill="white"/>
</svg>
